<svg version="1.1" id="Layer_1" xmlns="http://www.w3.org/2000/svg" xmlns:xlink="http://www.w3.org/1999/xlink" x="0px" y="0px"
	 width="100%" viewBox="0 0 512 512" enable-background="new 0 0 512 512" xml:space="preserve">
<path fill="#FFFFFF" opacity="1.000000" stroke="none" 
	d="
M225.000000,0.999999 
	C246.354233,1.000000 267.708466,1.000000 289.229858,1.364898 
	C290.066559,2.147477 290.691711,2.817314 291.412384,2.944176 
	C299.371643,4.345248 307.396667,5.415811 315.305908,7.049838 
	C335.347565,11.190376 354.421082,18.367628 372.635742,27.468025 
	C384.089233,33.190422 394.997986,40.160534 405.619873,47.355213 
	C424.346527,60.039577 440.780121,75.474991 455.163483,92.858879 
	C469.353729,110.009331 481.350342,128.662018 490.617889,149.046600 
	C500.378021,170.514755 507.614441,192.671463 511.073120,216.032761 
	C511.181885,216.767487 512.334167,217.347733 513.000000,218.000000 
	C513.000000,244.020889 513.000000,270.041779 512.641418,296.230957 
	C511.522949,299.142273 510.491638,301.842010 510.045868,304.635193 
	C506.318909,327.986938 498.753174,350.156616 488.145386,371.138672 
	C481.642212,384.001801 474.068329,396.449860 465.812073,408.271942 
	C452.197266,427.766968 435.602600,444.729736 416.924164,459.417633 
	C400.839325,472.066040 383.419830,482.632233 364.691925,491.178101 
	C343.617401,500.794739 321.811249,507.505188 298.970459,511.072357 
	C298.231323,511.187805 297.653198,512.334167 297.000000,513.000000 
	C270.979095,513.000000 244.958206,513.000000 218.769073,512.641418 
	C217.935669,511.860779 217.322052,511.219971 216.597672,511.049255 
	C203.933075,508.064606 191.104599,505.660919 178.615326,502.073914 
	C160.375443,496.835327 143.393936,488.539490 126.968292,479.036469 
	C101.217659,464.138611 79.057243,444.952087 60.008785,422.299866 
	C45.786266,405.386627 34.067379,386.776398 24.749060,366.578369 
	C13.745007,342.726440 6.133779,318.033051 2.924534,291.965729 
	C2.835494,291.242462 1.665791,290.652252 1.000003,290.000000 
	C1.000000,268.645782 1.000000,247.291550 1.364913,225.770111 
	C2.147528,224.932785 2.814976,224.307495 2.944561,223.585663 
	C4.344645,215.786789 5.502198,207.941711 7.029452,200.168884 
	C11.014312,179.888260 18.364367,160.696228 27.504641,142.304642 
	C33.133369,130.978775 40.049831,120.220245 47.121792,109.700188 
	C59.850235,90.765694 75.466568,74.235214 92.982780,59.750011 
	C109.878975,45.777542 128.313965,34.054840 148.364700,24.776089 
	C172.230438,13.731903 196.971603,6.232142 223.030991,2.924925 
	C223.757080,2.832778 224.346725,1.665789 225.000000,0.999999 
M204.256653,259.080383 
	C189.311615,259.080383 174.366562,259.080383 159.212448,259.080383 
	C159.212448,274.476776 159.212448,289.539948 159.212448,304.808075 
	C174.483948,304.808075 189.545792,304.808075 204.939514,304.808075 
	C204.939514,289.650604 204.939514,274.705566 204.256653,259.080383 
M404.231934,404.919830 
	C404.461517,404.682922 404.891571,404.446411 404.892090,404.209045 
	C404.923920,389.273346 404.920715,374.337585 404.920715,359.219604 
	C389.510803,359.219604 374.454865,359.219604 359.222656,359.219604 
	C359.222656,374.495392 359.222656,389.551361 359.222656,404.992157 
	C374.050964,404.992157 388.660065,404.992157 404.231934,404.919830 
M209.000244,267.546204 
	C209.000244,279.967987 209.000244,292.389801 209.000244,304.711975 
	C224.679718,304.711975 239.742477,304.711975 254.710266,304.711975 
	C254.710266,289.337433 254.710266,274.276459 254.710266,259.312622 
	C239.332779,259.312622 224.270615,259.312622 209.000244,259.312622 
	C209.000244,261.936829 209.000244,264.250214 209.000244,267.546204 
M283.499878,305.023651 
	C290.595337,305.023651 297.690796,305.023651 304.726654,305.023651 
	C304.726654,289.368103 304.726654,274.308319 304.726654,259.294739 
	C289.366821,259.294739 274.305695,259.294739 259.294495,259.294739 
	C259.294495,274.653595 259.294495,289.716217 259.294495,305.023651 
	C267.224335,305.023651 274.862183,305.023651 283.499878,305.023651 
M155.023682,315.575134 
	C155.023682,313.474182 155.023682,311.373199 155.023682,309.280792 
	C139.396820,309.280792 124.335129,309.280792 109.281967,309.280792 
	C109.281967,324.626068 109.281967,339.689148 109.281967,354.738403 
	C124.627090,354.738403 139.688873,354.738403 155.023682,354.738403 
	C155.023682,341.823730 155.023682,329.192535 155.023682,315.575134 
M190.495880,355.023651 
	C195.259811,355.023651 200.023727,355.023651 204.726044,355.023651 
	C204.726044,339.366974 204.726044,324.307098 204.726044,309.295410 
	C189.365509,309.295410 174.304337,309.295410 159.295242,309.295410 
	C159.295242,324.655029 159.295242,339.717773 159.295242,355.023651 
	C169.558105,355.023651 179.527466,355.023651 190.495880,355.023651 
M259.000214,346.457520 
	C259.000214,349.229828 259.000214,352.002167 259.000214,354.737183 
	C274.630188,354.737183 289.691620,354.737183 304.736633,354.737183 
	C304.736633,339.388916 304.736633,324.328735 304.736633,309.285645 
	C289.386414,309.285645 274.324921,309.285645 259.000214,309.285645 
	C259.000214,321.534912 259.000214,333.500397 259.000214,346.457520 
M355.023651,320.517151 
	C355.023651,316.751129 355.023651,312.985077 355.023651,309.299194 
	C339.358398,309.299194 324.296875,309.299194 309.299408,309.299194 
	C309.299408,324.663055 309.299408,339.726196 309.299408,354.721344 
	C324.662201,354.721344 339.724060,354.721344 355.023651,354.721344 
	C355.023651,343.450775 355.023651,332.480865 355.023651,320.517151 
M155.023682,380.500122 
	C155.023682,373.408722 155.023682,366.317322 155.023682,359.296570 
	C139.358276,359.296570 124.299477,359.296570 109.300041,359.296570 
	C109.300041,374.651886 109.300041,389.709076 109.300041,404.703796 
	C124.661880,404.703796 139.722260,404.703796 155.023682,404.703796 
	C155.023682,396.773285 155.023682,389.136658 155.023682,380.500122 
M166.563583,404.999786 
	C179.314880,404.999786 192.066177,404.999786 204.705231,404.999786 
	C204.705231,389.319855 204.705231,374.262634 204.705231,359.313904 
	C189.324890,359.313904 174.264862,359.313904 159.319214,359.313904 
	C159.319214,374.687866 159.319214,389.746185 159.319214,404.999786 
	C161.616425,404.999786 163.598785,404.999786 166.563583,404.999786 
M309.000214,398.421875 
	C309.000214,400.523956 309.000214,402.626007 309.000214,404.724121 
	C324.618256,404.724121 339.678864,404.724121 354.741150,404.724121 
	C354.741150,389.390442 354.741150,374.334076 354.741150,359.278198 
	C339.397552,359.278198 324.338135,359.278198 309.000214,359.278198 
	C309.000214,372.181610 309.000214,384.809021 309.000214,398.421875 
M154.256653,259.080383 
	C139.311615,259.080383 124.366562,259.080383 109.212463,259.080383 
	C109.212463,274.476776 109.212463,289.539948 109.212463,304.808075 
	C124.483963,304.808075 139.545807,304.808075 154.939514,304.808075 
	C154.939514,289.650543 154.939514,274.705536 154.256653,259.080383 
M259.007660,253.277206 
	C259.608521,253.856842 260.206146,254.938614 260.810730,254.942520 
	C275.418213,255.036850 290.026428,255.016083 304.794617,255.016083 
	C304.794617,239.507980 304.794617,224.446350 304.794617,209.230865 
	C289.501953,209.230865 274.438995,209.230865 259.000946,209.230865 
	C259.000946,223.743027 259.000946,238.027649 259.007660,253.277206 
M236.499481,255.023682 
	C242.594360,255.023682 248.689240,255.023682 254.725952,255.023682 
	C254.725952,239.366760 254.725952,224.306946 254.725952,209.295441 
	C239.365295,209.295441 224.304245,209.295441 209.295166,209.295441 
	C209.295166,224.654984 209.295166,239.717636 209.295166,255.023682 
	C218.225189,255.023682 226.862396,255.023682 236.499481,255.023682 
M199.397522,209.000244 
	C185.984314,209.000244 172.571091,209.000244 159.336121,209.000244 
	C159.336121,224.736557 159.336121,239.801956 159.336121,254.682526 
	C174.738052,254.682526 189.802246,254.682526 204.858887,254.682526 
	C204.858887,239.397247 204.858887,224.453690 204.858887,209.000244 
	C203.258621,209.000244 201.816040,209.000244 199.397522,209.000244 
M148.421387,209.000244 
	C135.339127,209.000244 122.256866,209.000244 109.327988,209.000244 
	C109.327988,224.719818 109.327988,239.784882 109.327988,254.690826 
	C124.721474,254.690826 139.785324,254.690826 154.687744,254.690826 
	C154.687744,239.294891 154.687744,224.233749 154.687744,209.000244 
	C152.700912,209.000244 151.049225,209.000244 148.421387,209.000244 
M354.256561,159.080383 
	C339.311523,159.080383 324.366486,159.080383 309.212402,159.080383 
	C309.212402,174.476837 309.212402,189.540024 309.212402,204.808044 
	C324.484009,204.808044 339.545868,204.808044 354.939514,204.808044 
	C354.939514,189.650513 354.939514,174.705460 354.256561,159.080383 
M266.563538,159.000244 
	C264.129059,159.000244 261.694580,159.000244 259.284973,159.000244 
	C259.284973,174.631927 259.284973,189.695267 259.284973,204.735031 
	C274.633453,204.735031 289.695526,204.735031 304.733582,204.735031 
	C304.733582,189.383987 304.733582,174.323273 304.733582,159.000244 
	C292.145477,159.000244 279.845856,159.000244 266.563538,159.000244 
M159.000244,165.581161 
	C159.000244,178.666458 159.000244,191.751755 159.000244,204.698914 
	C174.705200,204.698914 189.768799,204.698914 204.696304,204.698914 
	C204.696304,189.310532 204.696304,174.248917 204.696304,159.327423 
	C189.304581,159.327423 174.242172,159.327423 159.000244,159.327423 
	C159.000244,161.304398 159.000244,162.955109 159.000244,165.581161 
M135.499573,159.000244 
	C126.740982,159.000244 117.982391,159.000244 109.300354,159.000244 
	C109.300354,174.665695 109.300354,189.728439 109.300354,204.720978 
	C124.663704,204.720978 139.725204,204.720978 154.720886,204.720978 
	C154.720886,189.356644 154.720886,174.296768 154.720886,159.000244 
	C148.446442,159.000244 142.472916,159.000244 135.499573,159.000244 
M379.500183,155.023682 
	C387.922974,155.023682 396.345764,155.023682 404.704712,155.023682 
	C404.704712,139.360947 404.704712,124.302147 404.704712,109.298767 
	C389.350586,109.298767 374.293488,109.298767 359.294983,109.298767 
	C359.294983,124.659286 359.294983,139.719635 359.294983,155.023682 
	C365.892029,155.023682 372.196228,155.023682 379.500183,155.023682 
M309.000214,132.500000 
	C309.000214,139.929718 309.000214,147.359436 309.000214,154.727005 
	C324.651733,154.727005 339.712952,154.727005 354.726990,154.727005 
	C354.726990,139.368713 354.726990,124.309021 354.726990,109.294411 
	C339.367523,109.294411 324.306427,109.294411 309.000214,109.294411 
	C309.000214,116.890732 309.000214,124.195366 309.000214,132.500000 
M180.500122,155.023682 
	C188.593933,155.023682 196.687744,155.023682 204.727417,155.023682 
	C204.727417,139.369659 204.727417,124.309875 204.727417,109.294006 
	C189.368362,109.294006 174.307251,109.294006 159.293732,109.294006 
	C159.293732,124.652031 159.293732,139.714645 159.293732,155.023682 
	C166.223068,155.023682 172.861633,155.023682 180.500122,155.023682 
M155.023682,118.533920 
	C155.023682,115.431007 155.023682,112.328102 155.023682,109.294312 
	C139.368927,109.294312 124.307259,109.294312 109.295006,109.294312 
	C109.295006,124.653320 109.295006,139.716599 109.295006,154.725464 
	C124.653450,154.725464 139.715439,154.725464 155.023682,154.725464 
	C155.023682,142.793579 155.023682,131.158371 155.023682,118.533920 
z"/>
<path fill="#000000" opacity="1.000000" stroke="none" 
	d="
M224.531342,0.999999 
	C224.346725,1.665789 223.757080,2.832778 223.030991,2.924925 
	C196.971603,6.232142 172.230438,13.731903 148.364700,24.776089 
	C128.313965,34.054840 109.878975,45.777542 92.982780,59.750011 
	C75.466568,74.235214 59.850235,90.765694 47.121792,109.700188 
	C40.049831,120.220245 33.133369,130.978775 27.504641,142.304642 
	C18.364367,160.696228 11.014312,179.888260 7.029452,200.168884 
	C5.502198,207.941711 4.344645,215.786789 2.944561,223.585663 
	C2.814976,224.307495 2.147528,224.932785 1.364913,225.301453 
	C1.000000,150.406296 1.000000,75.812576 1.000000,1.000000 
	C75.354088,1.000000 149.708389,1.000000 224.531342,0.999999 
z"/>
<path fill="#000000" opacity="1.000000" stroke="none" 
	d="
M513.000000,217.531342 
	C512.334167,217.347733 511.181885,216.767487 511.073120,216.032761 
	C507.614441,192.671463 500.378021,170.514755 490.617889,149.046600 
	C481.350342,128.662018 469.353729,110.009331 455.163483,92.858879 
	C440.780121,75.474991 424.346527,60.039577 405.619873,47.355213 
	C394.997986,40.160534 384.089233,33.190422 372.635742,27.468025 
	C354.421082,18.367628 335.347565,11.190376 315.305908,7.049838 
	C307.396667,5.415811 299.371643,4.345248 291.412384,2.944176 
	C290.691711,2.817314 290.066559,2.147477 289.698517,1.364898 
	C364.259369,1.000000 438.518707,1.000000 513.000000,1.000000 
	C513.000000,73.020744 513.000000,145.041718 513.000000,217.531342 
z"/>
<path fill="#000000" opacity="1.000000" stroke="none" 
	d="
M1.000003,290.468658 
	C1.665791,290.652252 2.835494,291.242462 2.924534,291.965729 
	C6.133779,318.033051 13.745007,342.726440 24.749060,366.578369 
	C34.067379,386.776398 45.786266,405.386627 60.008785,422.299866 
	C79.057243,444.952087 101.217659,464.138611 126.968292,479.036469 
	C143.393936,488.539490 160.375443,496.835327 178.615326,502.073914 
	C191.104599,505.660919 203.933075,508.064606 216.597672,511.049255 
	C217.322052,511.219971 217.935669,511.860779 218.300415,512.641418 
	C145.738647,513.000000 73.477280,513.000000 1.000000,513.000000 
	C1.000000,438.979248 1.000000,364.958282 1.000003,290.468658 
z"/>
<path fill="#000000" opacity="1.000000" stroke="none" 
	d="
M297.468658,513.000000 
	C297.653198,512.334167 298.231323,511.187805 298.970459,511.072357 
	C321.811249,507.505188 343.617401,500.794739 364.691925,491.178101 
	C383.419830,482.632233 400.839325,472.066040 416.924164,459.417633 
	C435.602600,444.729736 452.197266,427.766968 465.812073,408.271942 
	C474.068329,396.449860 481.642212,384.001801 488.145386,371.138672 
	C498.753174,350.156616 506.318909,327.986938 510.045868,304.635193 
	C510.491638,301.842010 511.522949,299.142273 512.641418,296.699585 
	C513.000000,368.927032 513.000000,440.854034 513.000000,513.000000 
	C441.312592,513.000000 369.624939,513.000000 297.468658,513.000000 
z"/>
<path fill="#172A47" opacity="1.000000" stroke="none" 
	d="
M204.598083,259.420471 
	C204.939514,274.705566 204.939514,289.650604 204.939514,304.808075 
	C189.545792,304.808075 174.483948,304.808075 159.212448,304.808075 
	C159.212448,289.539948 159.212448,274.476776 159.212448,259.080383 
	C174.366562,259.080383 189.311615,259.080383 204.598083,259.420471 
z"/>
<path fill="#172A47" opacity="1.000000" stroke="none" 
	d="
M403.750549,404.955994 
	C388.660065,404.992157 374.050964,404.992157 359.222656,404.992157 
	C359.222656,389.551361 359.222656,374.495392 359.222656,359.219604 
	C374.454865,359.219604 389.510803,359.219604 404.920715,359.219604 
	C404.920715,374.337585 404.923920,389.273346 404.892090,404.209045 
	C404.891571,404.446411 404.461517,404.682922 403.750549,404.955994 
z"/>
<path fill="#172A47" opacity="1.000000" stroke="none" 
	d="
M209.000244,267.054901 
	C209.000244,264.250214 209.000244,261.936829 209.000244,259.312622 
	C224.270615,259.312622 239.332779,259.312622 254.710266,259.312622 
	C254.710266,274.276459 254.710266,289.337433 254.710266,304.711975 
	C239.742477,304.711975 224.679718,304.711975 209.000244,304.711975 
	C209.000244,292.389801 209.000244,279.967987 209.000244,267.054901 
z"/>
<path fill="#172A47" opacity="1.000000" stroke="none" 
	d="
M282.999939,305.023651 
	C274.862183,305.023651 267.224335,305.023651 259.294495,305.023651 
	C259.294495,289.716217 259.294495,274.653595 259.294495,259.294739 
	C274.305695,259.294739 289.366821,259.294739 304.726654,259.294739 
	C304.726654,274.308319 304.726654,289.368103 304.726654,305.023651 
	C297.690796,305.023651 290.595337,305.023651 282.999939,305.023651 
z"/>
<path fill="#172A47" opacity="1.000000" stroke="none" 
	d="
M155.023682,316.068237 
	C155.023682,329.192535 155.023682,341.823730 155.023682,354.738403 
	C139.688873,354.738403 124.627090,354.738403 109.281967,354.738403 
	C109.281967,339.689148 109.281967,324.626068 109.281967,309.280792 
	C124.335129,309.280792 139.396820,309.280792 155.023682,309.280792 
	C155.023682,311.373199 155.023682,313.474182 155.023682,316.068237 
z"/>
<path fill="#172A47" opacity="1.000000" stroke="none" 
	d="
M189.996338,355.023651 
	C179.527466,355.023651 169.558105,355.023651 159.295242,355.023651 
	C159.295242,339.717773 159.295242,324.655029 159.295242,309.295410 
	C174.304337,309.295410 189.365509,309.295410 204.726044,309.295410 
	C204.726044,324.307098 204.726044,339.366974 204.726044,355.023651 
	C200.023727,355.023651 195.259811,355.023651 189.996338,355.023651 
z"/>
<path fill="#172A47" opacity="1.000000" stroke="none" 
	d="
M259.000214,345.961731 
	C259.000214,333.500397 259.000214,321.534912 259.000214,309.285645 
	C274.324921,309.285645 289.386414,309.285645 304.736633,309.285645 
	C304.736633,324.328735 304.736633,339.388916 304.736633,354.737183 
	C289.691620,354.737183 274.630188,354.737183 259.000214,354.737183 
	C259.000214,352.002167 259.000214,349.229828 259.000214,345.961731 
z"/>
<path fill="#172A47" opacity="1.000000" stroke="none" 
	d="
M355.023651,321.014038 
	C355.023651,332.480865 355.023651,343.450775 355.023651,354.721344 
	C339.724060,354.721344 324.662201,354.721344 309.299408,354.721344 
	C309.299408,339.726196 309.299408,324.663055 309.299408,309.299194 
	C324.296875,309.299194 339.358398,309.299194 355.023651,309.299194 
	C355.023651,312.985077 355.023651,316.751129 355.023651,321.014038 
z"/>
<path fill="#172A47" opacity="1.000000" stroke="none" 
	d="
M155.023682,381.000061 
	C155.023682,389.136658 155.023682,396.773285 155.023682,404.703796 
	C139.722260,404.703796 124.661880,404.703796 109.300041,404.703796 
	C109.300041,389.709076 109.300041,374.651886 109.300041,359.296570 
	C124.299477,359.296570 139.358276,359.296570 155.023682,359.296570 
	C155.023682,366.317322 155.023682,373.408722 155.023682,381.000061 
z"/>
<path fill="#172A47" opacity="1.000000" stroke="none" 
	d="
M166.072372,404.999786 
	C163.598785,404.999786 161.616425,404.999786 159.319214,404.999786 
	C159.319214,389.746185 159.319214,374.687866 159.319214,359.313904 
	C174.264862,359.313904 189.324890,359.313904 204.705231,359.313904 
	C204.705231,374.262634 204.705231,389.319855 204.705231,404.999786 
	C192.066177,404.999786 179.314880,404.999786 166.072372,404.999786 
z"/>
<path fill="#172A47" opacity="1.000000" stroke="none" 
	d="
M309.000214,397.929138 
	C309.000214,384.809021 309.000214,372.181610 309.000214,359.278198 
	C324.338135,359.278198 339.397552,359.278198 354.741150,359.278198 
	C354.741150,374.334076 354.741150,389.390442 354.741150,404.724121 
	C339.678864,404.724121 324.618256,404.724121 309.000214,404.724121 
	C309.000214,402.626007 309.000214,400.523956 309.000214,397.929138 
z"/>
<path fill="#172A47" opacity="1.000000" stroke="none" 
	d="
M154.598083,259.420471 
	C154.939514,274.705536 154.939514,289.650543 154.939514,304.808075 
	C139.545807,304.808075 124.483963,304.808075 109.212463,304.808075 
	C109.212463,289.539948 109.212463,274.476776 109.212463,259.080383 
	C124.366562,259.080383 139.311615,259.080383 154.598083,259.420471 
z"/>
<path fill="#172A47" opacity="1.000000" stroke="none" 
	d="
M259.004303,252.794739 
	C259.000946,238.027649 259.000946,223.743027 259.000946,209.230865 
	C274.438995,209.230865 289.501953,209.230865 304.794617,209.230865 
	C304.794617,224.446350 304.794617,239.507980 304.794617,255.016083 
	C290.026428,255.016083 275.418213,255.036850 260.810730,254.942520 
	C260.206146,254.938614 259.608521,253.856842 259.004303,252.794739 
z"/>
<path fill="#172A47" opacity="1.000000" stroke="none" 
	d="
M235.999542,255.023682 
	C226.862396,255.023682 218.225189,255.023682 209.295166,255.023682 
	C209.295166,239.717636 209.295166,224.654984 209.295166,209.295441 
	C224.304245,209.295441 239.365295,209.295441 254.725952,209.295441 
	C254.725952,224.306946 254.725952,239.366760 254.725952,255.023682 
	C248.689240,255.023682 242.594360,255.023682 235.999542,255.023682 
z"/>
<path fill="#172A47" opacity="1.000000" stroke="none" 
	d="
M199.885498,209.000244 
	C201.816040,209.000244 203.258621,209.000244 204.858887,209.000244 
	C204.858887,224.453690 204.858887,239.397247 204.858887,254.682526 
	C189.802246,254.682526 174.738052,254.682526 159.336121,254.682526 
	C159.336121,239.801956 159.336121,224.736557 159.336121,209.000244 
	C172.571091,209.000244 185.984314,209.000244 199.885498,209.000244 
z"/>
<path fill="#172A47" opacity="1.000000" stroke="none" 
	d="
M148.909454,209.000244 
	C151.049225,209.000244 152.700912,209.000244 154.687744,209.000244 
	C154.687744,224.233749 154.687744,239.294891 154.687744,254.690826 
	C139.785324,254.690826 124.721474,254.690826 109.327988,254.690826 
	C109.327988,239.784882 109.327988,224.719818 109.327988,209.000244 
	C122.256866,209.000244 135.339127,209.000244 148.909454,209.000244 
z"/>
<path fill="#172A47" opacity="1.000000" stroke="none" 
	d="
M354.598022,159.420395 
	C354.939514,174.705460 354.939514,189.650513 354.939514,204.808044 
	C339.545868,204.808044 324.484009,204.808044 309.212402,204.808044 
	C309.212402,189.540024 309.212402,174.476837 309.212402,159.080383 
	C324.366486,159.080383 339.311523,159.080383 354.598022,159.420395 
z"/>
<path fill="#172A47" opacity="1.000000" stroke="none" 
	d="
M267.054871,159.000244 
	C279.845856,159.000244 292.145477,159.000244 304.733582,159.000244 
	C304.733582,174.323273 304.733582,189.383987 304.733582,204.735031 
	C289.695526,204.735031 274.633453,204.735031 259.284973,204.735031 
	C259.284973,189.695267 259.284973,174.631927 259.284973,159.000244 
	C261.694580,159.000244 264.129059,159.000244 267.054871,159.000244 
z"/>
<path fill="#172A47" opacity="1.000000" stroke="none" 
	d="
M159.000244,165.093491 
	C159.000244,162.955109 159.000244,161.304398 159.000244,159.327423 
	C174.242172,159.327423 189.304581,159.327423 204.696304,159.327423 
	C204.696304,174.248917 204.696304,189.310532 204.696304,204.698914 
	C189.768799,204.698914 174.705200,204.698914 159.000244,204.698914 
	C159.000244,191.751755 159.000244,178.666458 159.000244,165.093491 
z"/>
<path fill="#172A47" opacity="1.000000" stroke="none" 
	d="
M135.999481,159.000244 
	C142.472916,159.000244 148.446442,159.000244 154.720886,159.000244 
	C154.720886,174.296768 154.720886,189.356644 154.720886,204.720978 
	C139.725204,204.720978 124.663704,204.720978 109.300354,204.720978 
	C109.300354,189.728439 109.300354,174.665695 109.300354,159.000244 
	C117.982391,159.000244 126.740982,159.000244 135.999481,159.000244 
z"/>
<path fill="#172A47" opacity="1.000000" stroke="none" 
	d="
M379.000305,155.023682 
	C372.196228,155.023682 365.892029,155.023682 359.294983,155.023682 
	C359.294983,139.719635 359.294983,124.659286 359.294983,109.298767 
	C374.293488,109.298767 389.350586,109.298767 404.704712,109.298767 
	C404.704712,124.302147 404.704712,139.360947 404.704712,155.023682 
	C396.345764,155.023682 387.922974,155.023682 379.000305,155.023682 
z"/>
<path fill="#172A47" opacity="1.000000" stroke="none" 
	d="
M309.000214,132.000000 
	C309.000214,124.195366 309.000214,116.890732 309.000214,109.294411 
	C324.306427,109.294411 339.367523,109.294411 354.726990,109.294411 
	C354.726990,124.309021 354.726990,139.368713 354.726990,154.727005 
	C339.712952,154.727005 324.651733,154.727005 309.000214,154.727005 
	C309.000214,147.359436 309.000214,139.929718 309.000214,132.000000 
z"/>
<path fill="#172A47" opacity="1.000000" stroke="none" 
	d="
M180.000153,155.023682 
	C172.861633,155.023682 166.223068,155.023682 159.293732,155.023682 
	C159.293732,139.714645 159.293732,124.652031 159.293732,109.294006 
	C174.307251,109.294006 189.368362,109.294006 204.727417,109.294006 
	C204.727417,124.309875 204.727417,139.369659 204.727417,155.023682 
	C196.687744,155.023682 188.593933,155.023682 180.000153,155.023682 
z"/>
<path fill="#172A47" opacity="1.000000" stroke="none" 
	d="
M155.023682,119.028549 
	C155.023682,131.158371 155.023682,142.793579 155.023682,154.725464 
	C139.715439,154.725464 124.653450,154.725464 109.295006,154.725464 
	C109.295006,139.716599 109.295006,124.653320 109.295006,109.294312 
	C124.307259,109.294312 139.368927,109.294312 155.023682,109.294312 
	C155.023682,112.328102 155.023682,115.431007 155.023682,119.028549 
z"/>
</svg>